<?xml version="1.0" encoding="utf-8"?>
<!-- Generator: Adobe Illustrator 17.0.0, SVG Export Plug-In . SVG Version: 6.00 Build 0)  -->
<!DOCTYPE svg PUBLIC "-//W3C//DTD SVG 1.0//EN" "http://www.w3.org/TR/2001/REC-SVG-20010904/DTD/svg10.dtd">
<svg version="1.0" id="Layer_1" xmlns="http://www.w3.org/2000/svg" xmlns:xlink="http://www.w3.org/1999/xlink" x="0px" y="0px"
	 width="188.633px" height="169.086px" viewBox="0 0 188.633 169.086" enable-background="new 0 0 188.633 169.086"
	 xml:space="preserve">
<polyline id="White_Shield_Green_Leaf_Outest_1_" fill="#FFFFFF" points="79.356,19.851 84.118,25.477 81.022,10.867 88.558,15.359 
	94.136,4.782 99.77,15.327 107.249,10.939 104.282,25.413 104.951,24.633 108.988,19.851 111.814,25.211 120.507,23.038 
	117.247,31.732 119.711,31.732 124.13,19.778 113.046,22.604 109.423,15.866 108.409,17.097 110.51,6.375 100.656,12.244 94.136,0 
	87.615,12.171 77.69,6.303 80.009,17.17 78.85,15.866 75.228,22.604 64.143,19.778 68.562,31.732 71.097,31.732 67.765,23.038 
	76.458,25.211 "/>
<path id="White_Shield_Outest_outer_1_" fill="#FFFFFF" d="M1.547,44.048l4.926,7.39l73.463,104.254l6.665,9.49
	c3.84,5.071,11.23,5.217,15.07,0.073l6.593-9.201l73.68-104.906l4.928-6.955c4.202-6.303,0.361-14.491-7.535-14.779h-13.113H19.659
	H9.298C1.909,29.415-2.438,37.601,1.547,44.048"/>
<path id="White_Shield_Outest_1_" fill="none" stroke="#FFFFFF" stroke-width="0.0714" d="M1.547,44.048l4.926,7.39l73.463,104.254
	l6.665,9.49c3.84,5.071,11.23,5.217,15.07,0.073l6.593-9.201l73.68-104.906l4.928-6.955c4.202-6.303,0.361-14.491-7.535-14.779
	h-13.113H19.659H9.298C1.909,29.415-2.438,37.601,1.547,44.048z"/>
<path id="Black_Shield_1_" d="M3.72,43.034l4.636,7.101l73.608,104.471l6.375,9.057c2.899,4.129,8.694,4.129,11.592,0.072
	l6.231-8.84l74.114-105.412l4.637-6.666c3.405-4.999,0-11.012-5.65-11.085h-12.461H19.369H9.444
	C3.792,31.661,0.17,37.818,3.72,43.034"/>
<path id="Black_Shield_Outer_1_" fill="none" stroke="#000000" stroke-width="0.071" d="M3.72,43.034l4.636,7.101l73.608,104.471
	l6.375,9.057c2.899,4.129,8.694,4.129,11.592,0.072l6.231-8.84l74.114-105.412l4.637-6.666c3.405-4.999,0-11.012-5.65-11.085
	h-12.461H19.369H9.444C3.792,31.661,0.17,37.818,3.72,43.034z"/>
<path id="White_Shield_2_" fill="#FFFFFF" d="M5.604,41.513l4.565,6.882l74.042,105.051l6.23,8.911c2.173,2.681,5.434,2.754,7.534,0
	l6.159-8.693l74.477-105.92l4.564-6.521c1.956-2.897,0-7.1-3.768-7.1h-12.243H19.079H9.371C4.951,34.196,3.647,38.759,5.604,41.513"
	/>
<path id="White_Shield_Outer_1_" fill="none" stroke="#FFFFFF" stroke-width="0.0714" d="M5.604,41.513l4.565,6.882l74.042,105.051
	l6.23,8.911c2.173,2.681,5.434,2.754,7.534,0l6.159-8.693l74.477-105.92l4.564-6.521c1.956-2.897,0-7.1-3.768-7.1h-12.243H19.079
	H9.371C4.951,34.196,3.647,38.759,5.604,41.513z"/>
<path id="Red_Shield_1_" fill="#ED1B2D" d="M7.561,40.064l4.346,6.521l74.695,105.992l5.869,8.404c0.869,1.16,2.68,1.231,3.549,0
	l5.868-8.186l74.985-106.79l4.347-6.159c0.724-1.16,0-3.333-1.812-3.333h-11.664H18.5H9.298C7.561,36.514,6.618,38.615,7.561,40.064
	"/>
<path id="Red_Sheild_Outer_1_" fill="none" stroke="#ED1B2D" stroke-width="0.0714" d="M7.561,40.064l4.346,6.521l74.695,105.992
	l5.869,8.404c0.869,1.16,2.68,1.231,3.549,0l5.868-8.186l74.985-106.79l4.347-6.159c0.724-1.16,0-3.333-1.812-3.333h-11.664H18.5
	H9.298C7.561,36.514,6.618,38.615,7.561,40.064z"/>
<polyline id="Green_Leaf_Black_BG_Outer_1_" points="116.74,33.109 117.32,31.515 120.507,23.038 111.814,25.211 108.988,19.851 
	104.951,24.633 104.279,25.43 104.282,25.413 107.249,10.939 99.77,15.327 99.715,15.359 94.136,4.854 88.558,15.359 81.022,10.867 
	84.139,25.502 84.118,25.477 79.356,19.851 76.458,25.211 67.765,23.038 71.025,31.515 71.605,33.109 67.837,36.804 80.009,46.439 
	76.024,53.54 90.731,51.076 90.731,55.931 97.542,55.931 97.542,51.076 112.248,53.467 108.336,46.439 120.435,36.876 "/>
<path id="Green_Leaf_Black_BG_1_" d="M108.026,46.377l0.161-0.127l11.887-9.396l-3.507-3.576l-0.105-0.108l0.052-0.143
	c0,0,0.579-1.594,0.58-1.596l3.026-8.046l-8.248,2.06l-0.184,0.046l-0.089-0.168l-2.657-5.043c-0.839,0.994-3.807,4.508-3.807,4.508
	l-0.672,0.797c0,0-0.611,0.724-0.608,0.708l0.19-0.928l2.858-13.943c-1.619,0.95-7.013,4.113-7.012,4.113l-0.055,0.032l-0.219,0.128
	L99.5,15.472L94.136,5.369l-5.365,10.103l-0.12,0.224l-0.217-0.13l-7.061-4.208l3.001,14.094l0.196,0.925l-0.616-0.718
	c0,0-0.021-0.023-0.022-0.025L79.4,20.277l-2.729,5.049l-0.088,0.165L76.4,25.445l-8.244-2.059c0.66,1.714,3.094,8.044,3.096,8.047
	l0.579,1.594l0.053,0.146l-0.111,0.109l-3.572,3.503l11.957,9.465l0.162,0.128l-0.102,0.179l-3.738,6.661l14.21-2.38l0.282-0.047
	v0.285v4.613H97.3v-4.613v-0.284l0.28,0.045l14.216,2.312l-3.671-6.591"/>
<path id="Green_Leaf_1_" fill="#009D57" d="M96.527,48.831c-0.797-0.146-1.015,0.073-1.015,0.797v4.273h-2.68v-4.273
	c0-0.653-0.146-0.943-0.942-0.797l-11.954,1.955l1.883-3.332c0.507-0.798,0.507-1.957-0.362-2.464l-10.504-8.259l2.1-2.246
	c0.652-0.434,0.797-1.376,0.362-2.246l-0.29-0.725l-2.029-5.579l5.145,1.377c0.869,0.29,1.594-0.29,1.956-0.943l1.521-2.897
	l5.434,6.448c1.16,1.159,2.028,0.58,1.739-1.159L83.993,15.07l3.984,2.318c0.797,0.434,1.739,0.361,2.102-0.435l4.057-7.752
	l4.057,7.752c0.361,0.724,1.305,0.941,2.101,0.506l4.058-2.462l-2.971,13.837c-0.289,1.739,0.652,2.246,1.811,1.087l5.362-6.375
	l1.594,2.97c0.362,0.652,1.086,1.014,1.956,0.725l5.144-1.231l-2.101,5.506l-0.362,0.869c-0.362,0.942-0.146,1.667,0.435,2.101
	l2.102,2.246l-10.505,8.259c-0.87,0.507-0.87,1.594-0.362,2.464l1.883,3.332"/>
<path id="Green_Leaf_Outer_1_" fill="none" stroke="#009D57" stroke-width="0.4826" d="M96.527,48.831
	c-0.797-0.146-1.015,0.073-1.015,0.797v4.273h-2.68v-4.273c0-0.653-0.146-0.943-0.942-0.797l-11.954,1.955l1.883-3.332
	c0.507-0.798,0.507-1.957-0.362-2.464l-10.504-8.259l2.1-2.246c0.652-0.434,0.797-1.376,0.362-2.246l-0.29-0.725l-2.029-5.579
	l5.145,1.377c0.869,0.29,1.594-0.29,1.956-0.943l1.521-2.897l5.434,6.448c1.16,1.159,2.028,0.58,1.739-1.159L83.993,15.07
	l3.984,2.318c0.797,0.434,1.739,0.361,2.102-0.435l4.057-7.752l4.057,7.752c0.361,0.724,1.305,0.941,2.101,0.506l4.058-2.462
	l-2.971,13.837c-0.289,1.739,0.652,2.246,1.811,1.087l5.362-6.375l1.594,2.97c0.362,0.652,1.086,1.014,1.956,0.725l5.144-1.231
	l-2.101,5.506l-0.362,0.869c-0.362,0.942-0.146,1.667,0.435,2.101l2.102,2.246l-10.505,8.259c-0.87,0.507-0.87,1.594-0.362,2.464
	l1.883,3.332L96.527,48.831z"/>
</svg>
