<?xml version="1.0" encoding="UTF-8" standalone="no"?>
<svg width="52px" height="52px" viewBox="0 0 52 52" version="1.1" xmlns="http://www.w3.org/2000/svg" xmlns:xlink="http://www.w3.org/1999/xlink" xmlns:sketch="http://www.bohemiancoding.com/sketch/ns">
    <!-- Generator: Sketch 3.2.2 (9983) - http://www.bohemiancoding.com/sketch -->
    <title>cti-logo-blank</title>
    <desc>Created with Sketch.</desc>
    <defs></defs>
    <g id="Page-1" stroke="none" stroke-width="1" fill="none" fill-rule="evenodd" sketch:type="MSPage">
        <g id="cti-logo-blank" sketch:type="MSArtboardGroup">
            <g id="CT-Logo-Empty" sketch:type="MSLayerGroup" transform="translate(1.000000, 2.000000)">
                <g id="CTi-Logo" transform="translate(0.000000, 3.000000)" sketch:type="MSShapeGroup">
                    <path d="M4.251,0.097862069 L29.251,42.9016437 L20.7495,42.9016437 L0,7.37573563 L4.251,0.097862069" id="Fill-1" fill="#EB5E5E"></path>
                    <path d="M29.251,7.37622989 L50,7.37622989 L45.7495,0.0983563218 L25,0.0983563218 L29.251,7.37622989" id="Fill-2" fill="#EB5E5E"></path>
                    <path d="M20.749,7.37622989 L25,0.0983563218 L4.2505,0.0983563218 L0,7.37622989 L20.749,7.37622989" id="Fill-3" fill="#ED2726"></path>
                    <path d="M45.749,0.097862069 L20.749,42.9016437 L29.251,42.9016437 L50,7.37573563 L45.749,0.097862069" id="Fill-4" fill="#ED2726"></path>
                    <path d="M0,7.37622989 L10.2435,10.3585517 L8.5015,7.37622989 L0,7.37622989" id="Fill-5" fill="#CB2127"></path>
                    <path d="M45.749,0.097862069 L38.0145,7.37573563 L41.498,7.37573563 L45.749,0.097862069" id="Fill-6" fill="#CB2127"></path>
                    <path d="M20.749,42.9016437 L23.258,32.6414483 L25,35.6237701 L20.749,42.9016437" id="Fill-7" fill="#CB2127"></path>
                </g>
            </g>
        </g>
    </g>
</svg>